<svg width="20" height="20" viewBox="0 0 20 20" fill="none" xmlns="http://www.w3.org/2000/svg">
<mask id="path-1-inside-1_266_683" fill="white">
<path d="M9 7H11V5H9M10 18C5.59 18 2 14.41 2 10C2 5.59 5.59 2 10 2C14.41 2 18 5.59 18 10C18 14.41 14.41 18 10 18ZM10 0C8.68678 0 7.38642 0.258658 6.17317 0.761205C4.95991 1.26375 3.85752 2.00035 2.92893 2.92893C1.05357 4.8043 0 7.34784 0 10C0 12.6522 1.05357 15.1957 2.92893 17.0711C3.85752 17.9997 4.95991 18.7362 6.17317 19.2388C7.38642 19.7413 8.68678 20 10 20C12.6522 20 15.1957 18.9464 17.0711 17.0711C18.9464 15.1957 20 12.6522 20 10C20 8.68678 19.7413 7.38642 19.2388 6.17317C18.7362 4.95991 17.9997 3.85752 17.0711 2.92893C16.1425 2.00035 15.0401 1.26375 13.8268 0.761205C12.6136 0.258658 11.3132 0 10 0ZM9 15H11V9H9V15Z"/>
</mask>
<path d="M11 7V8H12V7H11ZM11 5H12V4H11V5ZM0 10H-1H0ZM10 20V21V20ZM9 15H8V16H9V15ZM11 15V16H12V15H11ZM11 9H12V8H11V9ZM9 9V8H8V9H9ZM9 8H11V6H9V8ZM12 7V5H10V7H12ZM11 4H9V6H11V4ZM10 17C6.14228 17 3 13.8577 3 10H1C1 14.9623 5.03772 19 10 19V17ZM3 10C3 6.14228 6.14228 3 10 3V1C5.03772 1 1 5.03772 1 10H3ZM10 3C13.8577 3 17 6.14228 17 10H19C19 5.03772 14.9623 1 10 1V3ZM17 10C17 13.8577 13.8577 17 10 17V19C14.9623 19 19 14.9623 19 10H17ZM10 -1C8.55546 -1 7.12506 -0.715477 5.79048 -0.162675L6.55585 1.68508C7.64778 1.23279 8.8181 1 10 1V-1ZM5.79048 -0.162675C4.4559 0.390127 3.24327 1.20038 2.22183 2.22183L3.63604 3.63604C4.47177 2.80031 5.46392 2.13738 6.55585 1.68508L5.79048 -0.162675ZM2.22183 2.22183C0.158925 4.28473 -1 7.08262 -1 10H1C1 7.61305 1.94821 5.32387 3.63604 3.63604L2.22183 2.22183ZM-1 10C-1 12.9174 0.158925 15.7153 2.22183 17.7782L3.63604 16.364C1.94821 14.6761 1 12.3869 1 10H-1ZM2.22183 17.7782C3.24327 18.7996 4.4559 19.6099 5.79048 20.1627L6.55585 18.3149C5.46392 17.8626 4.47177 17.1997 3.63604 16.364L2.22183 17.7782ZM5.79048 20.1627C7.12506 20.7155 8.55546 21 10 21V19C8.8181 19 7.64778 18.7672 6.55585 18.3149L5.79048 20.1627ZM10 21C12.9174 21 15.7153 19.8411 17.7782 17.7782L16.364 16.364C14.6761 18.0518 12.3869 19 10 19V21ZM17.7782 17.7782C19.8411 15.7153 21 12.9174 21 10H19C19 12.3869 18.0518 14.6761 16.364 16.364L17.7782 17.7782ZM21 10C21 8.55546 20.7155 7.12506 20.1627 5.79048L18.3149 6.55585C18.7672 7.64778 19 8.8181 19 10H21ZM20.1627 5.79048C19.6099 4.4559 18.7996 3.24327 17.7782 2.22183L16.364 3.63604C17.1997 4.47177 17.8626 5.46392 18.3149 6.55585L20.1627 5.79048ZM17.7782 2.22183C16.7567 1.20038 15.5441 0.390127 14.2095 -0.162675L13.4442 1.68508C14.5361 2.13738 15.5282 2.80031 16.364 3.63604L17.7782 2.22183ZM14.2095 -0.162675C12.8749 -0.715477 11.4445 -1 10 -1V1C11.1819 1 12.3522 1.23279 13.4442 1.68508L14.2095 -0.162675ZM9 16H11V14H9V16ZM12 15V9H10V15H12ZM11 8H9V10H11V8ZM8 9V15H10V9H8Z" fill="#FE9801" mask="url(#path-1-inside-1_266_683)"/>
</svg>
