<svg width="42" height="42" viewBox="0 0 42 42" fill="none" xmlns="http://www.w3.org/2000/svg">
<path d="M21 21.4094H4.8125C4.8125 29.4734 14.9599 36.4069 14.9599 36.4069H21" fill="#FFD08A"/>
<path d="M21 21.4094H4.8125C4.8125 29.4734 14.9599 36.4069 14.9599 36.4069H21" stroke="#697C37" stroke-width="1.05" stroke-linecap="round" stroke-linejoin="round"/>
<path d="M9.52356 23.2522C9.52356 29.1952 16.1981 33.5807 16.1981 33.5807L9.52356 23.2522ZM21.0001 21.4095H37.1876C37.1876 29.4735 27.0402 36.407 27.0402 36.407H21.0001M12.3323 21.4095C11.1546 17.0004 19.0296 13.9694 26.0961 13.0331L26.7873 11.7609L29.5733 15.1471L28.0447 15.3956C27.2966 17.8544 23.5516 21.4095 23.5516 21.4095" fill="#FFD08A"/>
<path d="M9.52356 23.2522C9.52356 29.1952 16.1981 33.5807 16.1981 33.5807M21.0001 21.4095H37.1876C37.1876 29.4735 27.0402 36.407 27.0402 36.407H21.0001M12.3323 21.4095C11.1546 17.0004 19.0296 13.9694 26.0961 13.0331L26.7873 11.7609L29.5733 15.1471L28.0447 15.3956C27.2966 17.8544 23.5516 21.4095 23.5516 21.4095" stroke="#697C37" stroke-width="1.05" stroke-linecap="round" stroke-linejoin="round"/>
<path d="M13.5713 21.4094C13.8233 19.1397 16.4553 16.5847 26.4968 13.5178L13.5713 21.4094Z" fill="#FFD08A"/>
<path d="M13.5713 21.4094C13.8233 19.1397 16.4553 16.5847 26.4968 13.5178" stroke="#697C37" stroke-width="1.05" stroke-linecap="round" stroke-linejoin="round"/>
<path d="M26.7557 13.8337C22.9582 15.736 18.5307 17.9217 15.428 21.4095L26.7557 13.8337ZM27.4969 14.7324C23.5506 20.0926 21 21.4095 21 21.4095L27.4969 14.7324ZM18.8169 21.4095C21.1969 20.0182 27.1206 14.2747 27.1206 14.2747L18.8169 21.4095ZM28.9424 14.3964L36.0745 8.61698C36.1917 8.52219 36.2891 8.40519 36.3611 8.27269C36.4331 8.14019 36.4782 7.9948 36.4939 7.84483C36.5096 7.69487 36.4955 7.54328 36.4525 7.39876C36.4095 7.25423 36.3385 7.11961 36.2434 7.00261C36.1485 6.88557 36.0315 6.78836 35.8991 6.71654C35.7667 6.64471 35.6214 6.59967 35.4716 6.58399C35.3217 6.56831 35.1703 6.58229 35.0259 6.62514C34.8815 6.66799 34.7469 6.73887 34.6299 6.83373L27.4969 12.6131" fill="#FFD08A"/>
<path d="M26.7557 13.8337C22.9582 15.736 18.5307 17.9217 15.428 21.4095M27.4969 14.7324C23.5506 20.0926 21 21.4095 21 21.4095M18.8169 21.4095C21.1969 20.0182 27.1206 14.2747 27.1206 14.2747M28.9424 14.3964L36.0745 8.61698C36.1917 8.52219 36.2891 8.40519 36.3611 8.27269C36.4331 8.14019 36.4782 7.9948 36.4939 7.84483C36.5096 7.69487 36.4955 7.54328 36.4525 7.39876C36.4095 7.25423 36.3385 7.11961 36.2434 7.00261C36.1485 6.88557 36.0315 6.78836 35.8991 6.71654C35.7667 6.64471 35.6214 6.59967 35.4716 6.58399C35.3217 6.56831 35.1703 6.58229 35.0259 6.62514C34.8815 6.66799 34.7469 6.73887 34.6299 6.83373L27.4969 12.6131" stroke="#697C37" stroke-width="1.05" stroke-linecap="round" stroke-linejoin="round"/>
<path d="M26.0969 13.0331L28.0447 15.3956L26.0969 13.0331Z" fill="#FFD08A"/>
<path d="M26.0969 13.0331L28.0447 15.3956" stroke="#697C37" stroke-width="1.05" stroke-linecap="round" stroke-linejoin="round"/>
</svg>
