<svg width="26" height="20" viewBox="0 0 26 20" fill="none" xmlns="http://www.w3.org/2000/svg">
<path d="M2.68367 7.92788L1.74101 8.87054L0.79834 7.92788L1.74101 6.98521L2.68367 7.92788ZM25.3503 18.5945C25.3503 18.9482 25.2099 19.2873 24.9598 19.5374C24.7098 19.7874 24.3706 19.9279 24.017 19.9279C23.6634 19.9279 23.3242 19.7874 23.0742 19.5374C22.8241 19.2873 22.6837 18.9482 22.6837 18.5945H25.3503ZM8.40767 15.5372L1.74101 8.87054L3.62634 6.98521L10.293 13.6519L8.40767 15.5372ZM1.74101 6.98521L8.40767 0.318542L10.293 2.20388L3.62634 8.87054L1.74101 6.98521ZM2.68367 6.59454H16.017V9.26121H2.68367V6.59454ZM25.3503 15.9279V18.5945H22.6837V15.9279H25.3503ZM16.017 6.59454C18.4924 6.59454 20.8663 7.57787 22.6167 9.32821C24.367 11.0786 25.3503 13.4525 25.3503 15.9279H22.6837C22.6837 14.1598 21.9813 12.4641 20.7311 11.2138C19.4808 9.96359 17.7851 9.26121 16.017 9.26121V6.59454Z" fill="#697C37"/>
</svg>
