<svg width="26" height="21" viewBox="0 0 26 21" fill="none" xmlns="http://www.w3.org/2000/svg">
<path d="M2.68367 8.52236L1.74101 9.46502L0.79834 8.52236L1.74101 7.57969L2.68367 8.52236ZM25.3503 19.189C25.3503 19.5426 25.2099 19.8818 24.9598 20.1318C24.7098 20.3819 24.3706 20.5224 24.017 20.5224C23.6634 20.5224 23.3242 20.3819 23.0742 20.1318C22.8241 19.8818 22.6837 19.5426 22.6837 19.189H25.3503ZM8.40767 16.1317L1.74101 9.46502L3.62634 7.57969L10.293 14.2464L8.40767 16.1317ZM1.74101 7.57969L8.40767 0.913025L10.293 2.79836L3.62634 9.46502L1.74101 7.57969ZM2.68367 7.18902H16.017V9.85569H2.68367V7.18902ZM25.3503 16.5224V19.189H22.6837V16.5224H25.3503ZM16.017 7.18902C18.4924 7.18902 20.8663 8.17236 22.6167 9.9227C24.367 11.673 25.3503 14.047 25.3503 16.5224H22.6837C22.6837 14.7542 21.9813 13.0586 20.7311 11.8083C19.4808 10.5581 17.7851 9.85569 16.017 9.85569V7.18902Z" fill="#FE9801"/>
</svg>
