<svg width="16" height="16" viewBox="0 0 16 16" fill="none" xmlns="http://www.w3.org/2000/svg">
<path d="M3.90314 1.1347L3.90315 1.13471L5.69797 3.44048C5.69799 3.44051 5.69802 3.44054 5.69804 3.44057C5.69808 3.44062 5.69811 3.44066 5.69815 3.44071C5.88531 3.68149 5.95154 3.99546 5.87738 4.29212L5.87734 4.29228L5.33034 6.48228L5.32996 6.48379C5.2709 6.72235 5.27432 6.9721 5.33989 7.20895C5.40545 7.4458 5.53096 7.66176 5.70428 7.83599L5.70565 7.83736L8.16265 10.2944L8.16381 10.2955C8.33824 10.4692 8.55455 10.5949 8.79181 10.6605C9.02906 10.726 9.27923 10.7293 9.5181 10.6698L9.51881 10.6697L11.7069 10.1229C11.7071 10.1228 11.7073 10.1228 11.7075 10.1227C11.854 10.0864 12.0068 10.0837 12.1544 10.1149C12.3021 10.146 12.4408 10.2102 12.5601 10.3025C12.5603 10.3026 12.5605 10.3028 12.5606 10.3029L14.8654 12.096C14.8654 12.096 14.8654 12.096 14.8655 12.096C15.3388 12.4643 15.3812 13.1627 14.959 13.5843L14.9587 13.5847L13.9247 14.6187C13.364 15.1793 12.5543 15.3997 11.8271 15.1436L11.8266 15.1434C9.29371 14.2534 6.9942 12.8035 5.09928 10.9017L5.09732 10.8997C3.1956 9.00506 1.7457 6.70589 0.855549 4.17333C0.60023 3.44687 0.820671 2.636 1.38131 2.07535L2.41491 1.04175C2.415 1.04167 2.41508 1.04158 2.41517 1.0415C2.51489 0.942002 2.6346 0.864811 2.76638 0.815036C2.89828 0.765219 3.03926 0.744001 3.17997 0.752789C3.32069 0.761577 3.45793 0.800171 3.58261 0.866011C3.70728 0.931852 3.81654 1.02344 3.90314 1.1347Z" stroke="#FE9801" stroke-width="1.5"/>
</svg>
