<svg width="25" height="25" viewBox="0 0 25 25" fill="none" xmlns="http://www.w3.org/2000/svg">
<g clip-path="url(#clip0_415_730)">
<path d="M15.167 9.6875V8.4375C15.167 8.16909 15.1682 7.96673 15.1917 7.78901C15.2145 7.61762 15.2521 7.52507 15.2891 7.47017C15.3299 7.40958 15.5081 7.1875 16.417 7.1875H17.917H18.667V6.4375V3.0775V2.41993L18.0151 2.33394C17.6494 2.28571 16.3847 2.1875 15.06 2.1875C13.5511 2.1875 12.1884 2.65005 11.1989 3.60734C10.2049 4.56897 9.66699 5.95299 9.66699 7.6375V9.6875H7.41699H6.66699V10.4375V14.4375V15.1875H7.41699H9.66699V22.9375V23.6875H10.417H14.417H15.167V22.9375V15.1875H16.917H17.5026L17.6446 14.6194L18.6446 10.6194L18.8776 9.6875H17.917H15.167Z" stroke="#FE9801" stroke-width="1.5"/>
</g>
<defs>
<clipPath id="clip0_415_730">
<rect width="24" height="24" fill="white" transform="translate(0.416992 0.9375)"/>
</clipPath>
</defs>
</svg>
