<svg width="20" height="20" viewBox="0 0 20 20" fill="none" xmlns="http://www.w3.org/2000/svg">
<path d="M10.8758 11.3747L10.5 11.471V11.859V12.5H9.5V11C9.5 10.8674 9.55268 10.7402 9.64645 10.6464C9.74022 10.5527 9.86739 10.5 10 10.5C11.3791 10.5 12.5 9.37914 12.5 8C12.5 6.62086 11.3791 5.5 10 5.5C8.79205 5.5 7.78225 6.35986 7.55016 7.5H6.53588C6.64317 6.75661 6.98776 6.06249 7.52513 5.52513C8.1815 4.86875 9.07174 4.5 10 4.5C10.9283 4.5 11.8185 4.86875 12.4749 5.52513C13.1312 6.18142 13.4999 7.07152 13.5 7.99965C13.4985 8.7734 13.24 9.52474 12.7651 10.1356C12.2901 10.7466 11.6255 11.1825 10.8758 11.3747ZM18.5 10C18.5 5.31286 14.6871 1.5 10 1.5C5.31286 1.5 1.5 5.31286 1.5 10C1.5 14.6871 5.31286 18.5 10 18.5C14.6871 18.5 18.5 14.6871 18.5 10ZM0.5 10C0.5 4.75314 4.75314 0.5 10 0.5C15.2469 0.5 19.5 4.75314 19.5 10C19.5 15.2469 15.2469 19.5 10 19.5C4.75314 19.5 0.5 15.2469 0.5 10ZM9.5 15.5V14.5H10.5V15.5H9.5Z" stroke="#FE9801"/>
</svg>
