<svg width="18" height="22" viewBox="0 0 18 22" fill="none" xmlns="http://www.w3.org/2000/svg">
<path d="M14.2664 15.5636L14.7344 16.0315L15.0567 15.4535C15.9651 13.8246 16.5 11.9413 16.5 10V5.3V4.97502L16.203 4.84307L9.20301 1.73307L9 1.64287L8.79699 1.73307L1.79699 4.84307L1.5 4.97502V5.3V10C1.5 14.723 4.60759 19.0978 8.85154 20.4175L8.99848 20.4631L9.14569 20.4183C10.9898 19.8566 12.609 18.7058 13.8532 17.2212L14.1473 16.8702L13.8236 16.5464L12.1036 14.8264L11.8155 14.5384L11.4751 14.7623C10.6092 15.3323 9.57315 15.5862 8.54179 15.4812C7.51055 15.3763 6.54703 14.919 5.81363 14.1865C4.97073 13.3423 4.49731 12.198 4.49731 11.005C4.49731 9.81203 4.9707 8.66781 5.81355 7.82355C6.65781 6.9807 7.80203 6.50731 8.995 6.50731C10.1881 6.50731 11.3324 6.9808 12.1767 7.82382L12.177 7.82406C12.9112 8.55624 13.3697 9.51982 13.4747 10.5514C13.5797 11.5831 13.3246 12.6192 12.7529 13.4843L12.5278 13.8249L12.8164 14.1136L14.2664 15.5636ZM0.5 10V4.32494L9 0.547159L17.5 4.32494V10C17.5 15.2973 13.8574 20.2335 9 21.4845C4.14261 20.2335 0.5 15.2973 0.5 10ZM5.5 11C5.5 12.9361 7.06386 14.5 9 14.5C10.9361 14.5 12.5 12.9361 12.5 11C12.5 9.06386 10.9361 7.5 9 7.5C7.06386 7.5 5.5 9.06386 5.5 11Z" stroke="#FE9801"/>
</svg>
