<svg width="42" height="43" viewBox="0 0 42 43" fill="none" xmlns="http://www.w3.org/2000/svg">
<path d="M21 22.1036H4.8125C4.8125 30.1676 14.9599 37.1011 14.9599 37.1011H21" fill="#FFD08A"/>
<path d="M21 22.1036H4.8125C4.8125 30.1676 14.9599 37.1011 14.9599 37.1011H21" stroke="#697C37" stroke-width="1.05" stroke-linecap="round" stroke-linejoin="round"/>
<path d="M9.52344 23.9463C9.52344 29.8893 16.1979 34.2748 16.1979 34.2748ZM20.9999 22.1036H37.1874C37.1874 30.1676 27.0401 37.1011 27.0401 37.1011H20.9999M12.3322 22.1036C11.1544 17.6945 19.0294 14.6635 26.0959 13.7272L26.7872 12.455L29.5732 15.8412L28.0446 16.0897C27.2964 18.5485 23.5514 22.1036 23.5514 22.1036" fill="#FFD08A"/>
<path d="M9.52344 23.9463C9.52344 29.8893 16.1979 34.2748 16.1979 34.2748M20.9999 22.1036H37.1874C37.1874 30.1676 27.0401 37.1011 27.0401 37.1011H20.9999M12.3322 22.1036C11.1544 17.6945 19.0294 14.6635 26.0959 13.7272L26.7872 12.455L29.5732 15.8412L28.0446 16.0897C27.2964 18.5485 23.5514 22.1036 23.5514 22.1036" stroke="#697C37" stroke-width="1.05" stroke-linecap="round" stroke-linejoin="round"/>
<path d="M13.5713 22.1036C13.8233 19.8339 16.4553 17.2789 26.4968 14.212Z" fill="#FFD08A"/>
<path d="M13.5713 22.1036C13.8233 19.8339 16.4553 17.2789 26.4968 14.212" stroke="#697C37" stroke-width="1.05" stroke-linecap="round" stroke-linejoin="round"/>
<path d="M26.7557 14.5278C22.9582 16.4301 18.5307 18.6158 15.428 22.1036ZM27.4969 15.4264C23.5506 20.7867 21 22.1036 21 22.1036ZM18.8169 22.1036C21.1969 20.7123 27.1206 14.9688 27.1206 14.9688ZM28.9424 15.0904L36.0745 9.31107C36.1917 9.21628 36.2891 9.09928 36.3611 8.96678C36.4331 8.83429 36.4782 8.68889 36.4939 8.53893C36.5096 8.38896 36.4955 8.23737 36.4525 8.09285C36.4095 7.94833 36.3385 7.8137 36.2434 7.6967C36.1485 7.57966 36.0315 7.48246 35.8991 7.41063C35.7667 7.3388 35.6214 7.29376 35.4716 7.27808C35.3217 7.2624 35.1703 7.27638 35.0259 7.31924C34.8815 7.36209 34.7469 7.43296 34.6299 7.52782L27.4969 13.3072" fill="#FFD08A"/>
<path d="M26.7557 14.5278C22.9582 16.4301 18.5307 18.6158 15.428 22.1036M27.4969 15.4264C23.5506 20.7867 21 22.1036 21 22.1036M18.8169 22.1036C21.1969 20.7123 27.1206 14.9688 27.1206 14.9688M28.9424 15.0904L36.0745 9.31107C36.1917 9.21628 36.2891 9.09928 36.3611 8.96678C36.4331 8.83429 36.4782 8.68889 36.4939 8.53893C36.5096 8.38896 36.4955 8.23737 36.4525 8.09285C36.4095 7.94833 36.3385 7.8137 36.2434 7.6967C36.1485 7.57966 36.0315 7.48246 35.8991 7.41063C35.7667 7.3388 35.6214 7.29376 35.4716 7.27808C35.3217 7.2624 35.1703 7.27638 35.0259 7.31924C34.8815 7.36209 34.7469 7.43296 34.6299 7.52782L27.4969 13.3072" stroke="#697C37" stroke-width="1.05" stroke-linecap="round" stroke-linejoin="round"/>
<path d="M26.0969 13.7272L28.0447 16.0897Z" fill="#FFD08A"/>
<path d="M26.0969 13.7272L28.0447 16.0897" stroke="#697C37" stroke-width="1.05" stroke-linecap="round" stroke-linejoin="round"/>
</svg>
