<svg width="25" height="25" viewBox="0 0 25 25" fill="none" xmlns="http://www.w3.org/2000/svg">
<g clip-path="url(#clip0_415_726)">
<path d="M6.27145 2.67073L6.27147 2.67076L8.9637 6.12941C9.24465 6.49062 9.3441 6.96173 9.23281 7.40687L9.23275 7.40711L8.41225 10.6921L8.41169 10.6944C8.3231 11.0522 8.32823 11.4268 8.42658 11.7821C8.52493 12.1374 8.71318 12.4613 8.97317 12.7227L8.97523 12.7247L12.6607 16.4102L12.6625 16.4119C12.9241 16.6725 13.2486 16.861 13.6045 16.9594C13.9603 17.0578 14.3356 17.0626 14.6939 16.9734L14.695 16.9732L17.9771 16.153C17.9773 16.153 17.9774 16.1529 17.9776 16.1529C18.1974 16.0983 18.4268 16.0943 18.6484 16.141C18.8699 16.1877 19.0779 16.2839 19.2569 16.4224C19.2572 16.4226 19.2574 16.4228 19.2577 16.423L22.7149 19.1126C22.7149 19.1126 22.7149 19.1127 22.7149 19.1127C23.425 19.6651 23.4885 20.7128 22.8553 21.3452L22.8547 21.3457L21.3037 22.8967C20.4628 23.7377 19.2483 24.0682 18.1573 23.6841L18.1567 23.6838C14.3573 22.3488 10.908 20.1739 8.06567 17.3212L8.06273 17.3183C5.21015 14.4763 3.03531 11.0275 1.70008 7.22871C1.31709 6.13899 1.64776 4.92268 2.48872 4.08172L4.03912 2.53132C4.03919 2.53125 4.03926 2.53118 4.03933 2.53111C4.18894 2.38178 4.36857 2.26594 4.56632 2.19124C4.76417 2.11652 4.97563 2.08469 5.18671 2.09787C5.39778 2.11106 5.60365 2.16894 5.79066 2.26771L6.31602 1.27291L5.79066 2.26771C5.97767 2.36647 6.14155 2.50384 6.27145 2.67073Z" stroke="#FE9801" stroke-width="2.25"/>
</g>
<defs>
<clipPath id="clip0_415_726">
<rect width="24" height="24" fill="white" transform="translate(0.416992 0.96875)"/>
</clipPath>
</defs>
</svg>
